<svg xmlns="http://www.w3.org/2000/svg" width="2144" height="1520" viewBox="0 0 2144 1520" role="img"><title>Umbra — comparação UM atual, U limiar e limiar com M</title><defs><filter id="blur"><feGaussianBlur stdDeviation="3"/></filter></defs><rect width="2144" height="1520" fill="#050505"/><text x="64" y="62" fill="#C5C7C5" font-family="DejaVu Sans,sans-serif" font-size="28">umbra / estudo de símbolo</text><text x="64" y="96" fill="#858A89" font-family="DejaVu Sans,sans-serif" font-size="16">01 — Comparação para avaliação · formas planas, sem luz ou textura</text><path d="M720 140V1430M1424 140V1430" stroke="#252727"/><text x="64" y="164" fill="#C5C7C5" font-family="DejaVu Sans,sans-serif" font-size="18">A / UM ATUAL</text><text x="64" y="194" fill="#858A89" font-family="DejaVu Sans,sans-serif" font-size="16">Duas letras em um percurso contínuo.</text><g transform="translate(196 242) scale(1.9078947368421053)"><path d="M16 16V68C16 108 72 108 72 68V16L104 60L136 16V100" fill="none" stroke="#C5C7C5" stroke-width="16" stroke-linejoin="bevel"/></g><text x="64" y="516" fill="#858A89" font-family="DejaVu Sans,sans-serif" font-size="13">SÍMBOLO / mesma largura óptica aproximada</text><text x="64" y="564" fill="#858A89" font-family="DejaVu Sans,sans-serif" font-size="13">FAVICON / 16, 24, 32 e 48 px</text><g transform="translate(64 590) scale(0.10526315789473684)"><path d="M16 16V68C16 108 72 108 72 68V16L104 60L136 16V100" fill="none" stroke="#C5C7C5" stroke-width="16" stroke-linejoin="bevel"/></g><text x="64" y="656" fill="#858A89" font-family="DejaVu Sans,sans-serif" font-size="12">16</text><g transform="translate(154 590) scale(0.15789473684210525)"><path d="M16 16V68C16 108 72 108 72 68V16L104 60L136 16V100" fill="none" stroke="#C5C7C5" stroke-width="16" stroke-linejoin="bevel"/></g><text x="154" y="656" fill="#858A89" font-family="DejaVu Sans,sans-serif" font-size="12">24</text><g transform="translate(244 590) scale(0.21052631578947367)"><path d="M16 16V68C16 108 72 108 72 68V16L104 60L136 16V100" fill="none" stroke="#C5C7C5" stroke-width="16" stroke-linejoin="bevel"/></g><text x="244" y="656" fill="#858A89" font-family="DejaVu Sans,sans-serif" font-size="12">32</text><g transform="translate(334 590) scale(0.3157894736842105)"><path d="M16 16V68C16 108 72 108 72 68V16L104 60L136 16V100" fill="none" stroke="#C5C7C5" stroke-width="16" stroke-linejoin="bevel"/></g><text x="334" y="656" fill="#858A89" font-family="DejaVu Sans,sans-serif" font-size="12">48</text><text x="64" y="710" fill="#858A89" font-family="DejaVu Sans,sans-serif" font-size="13">AVATAR / quadrado e recorte circular</text><rect x="64" y="734" width="128" height="128" rx="24" fill="#161919"/><circle cx="312" cy="798" r="64" fill="#161919"/><g transform="translate(88 766) scale(0.5263157894736842)"><path d="M16 16V68C16 108 72 108 72 68V16L104 60L136 16V100" fill="none" stroke="#C5C7C5" stroke-width="16" stroke-linejoin="bevel"/></g><g transform="translate(272 766) scale(0.5263157894736842)"><path d="M16 16V68C16 108 72 108 72 68V16L104 60L136 16V100" fill="none" stroke="#C5C7C5" stroke-width="16" stroke-linejoin="bevel"/></g><text x="64" y="918" fill="#858A89" font-family="DejaVu Sans,sans-serif" font-size="13">ASSINATURA / símbolo + nome</text><g transform="translate(64 948) scale(0.4473684210526316)"><path d="M16 16V68C16 108 72 108 72 68V16L104 60L136 16V100" fill="none" stroke="#C5C7C5" stroke-width="16" stroke-linejoin="bevel"/></g><text x="156" y="994" fill="#C5C7C5" font-family="DejaVu Sans,sans-serif" font-size="48">umbra</text><text x="64" y="1064" fill="#858A89" font-family="DejaVu Sans,sans-serif" font-size="13">INVERSÃO / preto sobre Bone</text><rect x="64" y="1084" width="560" height="126" rx="4" fill="#C5C7C5"/><g transform="translate(292 1103) scale(0.6578947368421053)"><path d="M16 16V68C16 108 72 108 72 68V16L104 60L136 16V100" fill="none" stroke="#050505" stroke-width="16" stroke-linejoin="bevel"/></g><text x="64" y="1258" fill="#858A89" font-family="DejaVu Sans,sans-serif" font-size="13">DESFOQUE / estrutura geral</text><g filter="url(#blur)"><g transform="translate(64 1284) scale(0.8552631578947368)"><path d="M16 16V68C16 108 72 108 72 68V16L104 60L136 16V100" fill="none" stroke="#C5C7C5" stroke-width="16" stroke-linejoin="bevel"/></g></g><text x="64" y="1436" fill="#858A89" font-family="DejaVu Sans,sans-serif" font-size="15">Mais literal; a junção concentra detalhes.</text><text x="768" y="164" fill="#C5C7C5" font-family="DejaVu Sans,sans-serif" font-size="18">B / U LIMIAR</text><text x="768" y="194" fill="#858A89" font-family="DejaVu Sans,sans-serif" font-size="16">Curva à esquerda. Abertura. Saída diagonal.</text><g transform="translate(900 242) scale(1.686046511627907)"><path d="M24 20V72Q24 108 60 108H100L148 44" fill="none" stroke="#C5C7C5" stroke-width="16" stroke-linejoin="round"/></g><text x="768" y="516" fill="#858A89" font-family="DejaVu Sans,sans-serif" font-size="13">SÍMBOLO / mesma largura óptica aproximada</text><text x="768" y="564" fill="#858A89" font-family="DejaVu Sans,sans-serif" font-size="13">FAVICON / 16, 24, 32 e 48 px</text><g transform="translate(768 590) scale(0.09302325581395349)"><path d="M24 20V72Q24 108 60 108H100L148 44" fill="none" stroke="#C5C7C5" stroke-width="16" stroke-linejoin="round"/></g><text x="768" y="656" fill="#858A89" font-family="DejaVu Sans,sans-serif" font-size="12">16</text><g transform="translate(858 590) scale(0.13953488372093023)"><path d="M24 20V72Q24 108 60 108H100L148 44" fill="none" stroke="#C5C7C5" stroke-width="16" stroke-linejoin="round"/></g><text x="858" y="656" fill="#858A89" font-family="DejaVu Sans,sans-serif" font-size="12">24</text><g transform="translate(948 590) scale(0.18604651162790697)"><path d="M24 20V72Q24 108 60 108H100L148 44" fill="none" stroke="#C5C7C5" stroke-width="16" stroke-linejoin="round"/></g><text x="948" y="656" fill="#858A89" font-family="DejaVu Sans,sans-serif" font-size="12">32</text><g transform="translate(1038 590) scale(0.27906976744186046)"><path d="M24 20V72Q24 108 60 108H100L148 44" fill="none" stroke="#C5C7C5" stroke-width="16" stroke-linejoin="round"/></g><text x="1038" y="656" fill="#858A89" font-family="DejaVu Sans,sans-serif" font-size="12">48</text><text x="768" y="710" fill="#858A89" font-family="DejaVu Sans,sans-serif" font-size="13">AVATAR / quadrado e recorte circular</text><rect x="768" y="734" width="128" height="128" rx="24" fill="#161919"/><circle cx="1016" cy="798" r="64" fill="#161919"/><g transform="translate(792 766) scale(0.46511627906976744)"><path d="M24 20V72Q24 108 60 108H100L148 44" fill="none" stroke="#C5C7C5" stroke-width="16" stroke-linejoin="round"/></g><g transform="translate(976 766) scale(0.46511627906976744)"><path d="M24 20V72Q24 108 60 108H100L148 44" fill="none" stroke="#C5C7C5" stroke-width="16" stroke-linejoin="round"/></g><text x="768" y="918" fill="#858A89" font-family="DejaVu Sans,sans-serif" font-size="13">ASSINATURA / símbolo + nome</text><g transform="translate(768 948) scale(0.3953488372093023)"><path d="M24 20V72Q24 108 60 108H100L148 44" fill="none" stroke="#C5C7C5" stroke-width="16" stroke-linejoin="round"/></g><text x="860" y="994" fill="#C5C7C5" font-family="DejaVu Sans,sans-serif" font-size="48">umbra</text><text x="768" y="1064" fill="#858A89" font-family="DejaVu Sans,sans-serif" font-size="13">INVERSÃO / preto sobre Bone</text><rect x="768" y="1084" width="560" height="126" rx="4" fill="#C5C7C5"/><g transform="translate(996 1103) scale(0.5813953488372093)"><path d="M24 20V72Q24 108 60 108H100L148 44" fill="none" stroke="#050505" stroke-width="16" stroke-linejoin="round"/></g><text x="768" y="1258" fill="#858A89" font-family="DejaVu Sans,sans-serif" font-size="13">DESFOQUE / estrutura geral</text><g filter="url(#blur)"><g transform="translate(768 1284) scale(0.7558139534883721)"><path d="M24 20V72Q24 108 60 108H100L148 44" fill="none" stroke="#C5C7C5" stroke-width="16" stroke-linejoin="round"/></g></g><text x="768" y="1436" fill="#858A89" font-family="DejaVu Sans,sans-serif" font-size="15">Mais aberto; pode parecer um recipiente ou uma rampa.</text><text x="1472" y="164" fill="#C5C7C5" font-family="DejaVu Sans,sans-serif" font-size="18">C / LIMIAR + M ABSTRATO</text><text x="1472" y="194" fill="#858A89" font-family="DejaVu Sans,sans-serif" font-size="16">A diagonal continua em um M de vale raso.</text><g transform="translate(1604 242) scale(1.2719298245614035)"><path d="M24 20V72Q24 108 60 108H100L148 44L176 72L204 44" fill="none" stroke="#C5C7C5" stroke-width="16" stroke-linejoin="bevel"/></g><text x="1472" y="516" fill="#858A89" font-family="DejaVu Sans,sans-serif" font-size="13">SÍMBOLO / mesma largura óptica aproximada</text><text x="1472" y="564" fill="#858A89" font-family="DejaVu Sans,sans-serif" font-size="13">FAVICON / 16, 24, 32 e 48 px</text><g transform="translate(1472 590) scale(0.07017543859649122)"><path d="M24 20V72Q24 108 60 108H100L148 44L176 72L204 44" fill="none" stroke="#C5C7C5" stroke-width="16" stroke-linejoin="bevel"/></g><text x="1472" y="656" fill="#858A89" font-family="DejaVu Sans,sans-serif" font-size="12">16</text><g transform="translate(1562 590) scale(0.10526315789473684)"><path d="M24 20V72Q24 108 60 108H100L148 44L176 72L204 44" fill="none" stroke="#C5C7C5" stroke-width="16" stroke-linejoin="bevel"/></g><text x="1562" y="656" fill="#858A89" font-family="DejaVu Sans,sans-serif" font-size="12">24</text><g transform="translate(1652 590) scale(0.14035087719298245)"><path d="M24 20V72Q24 108 60 108H100L148 44L176 72L204 44" fill="none" stroke="#C5C7C5" stroke-width="16" stroke-linejoin="bevel"/></g><text x="1652" y="656" fill="#858A89" font-family="DejaVu Sans,sans-serif" font-size="12">32</text><g transform="translate(1742 590) scale(0.21052631578947367)"><path d="M24 20V72Q24 108 60 108H100L148 44L176 72L204 44" fill="none" stroke="#C5C7C5" stroke-width="16" stroke-linejoin="bevel"/></g><text x="1742" y="656" fill="#858A89" font-family="DejaVu Sans,sans-serif" font-size="12">48</text><text x="1472" y="710" fill="#858A89" font-family="DejaVu Sans,sans-serif" font-size="13">AVATAR / quadrado e recorte circular</text><rect x="1472" y="734" width="128" height="128" rx="24" fill="#161919"/><circle cx="1720" cy="798" r="64" fill="#161919"/><g transform="translate(1496 766) scale(0.3508771929824561)"><path d="M24 20V72Q24 108 60 108H100L148 44L176 72L204 44" fill="none" stroke="#C5C7C5" stroke-width="16" stroke-linejoin="bevel"/></g><g transform="translate(1680 766) scale(0.3508771929824561)"><path d="M24 20V72Q24 108 60 108H100L148 44L176 72L204 44" fill="none" stroke="#C5C7C5" stroke-width="16" stroke-linejoin="bevel"/></g><text x="1472" y="918" fill="#858A89" font-family="DejaVu Sans,sans-serif" font-size="13">ASSINATURA / símbolo + nome</text><g transform="translate(1472 948) scale(0.2982456140350877)"><path d="M24 20V72Q24 108 60 108H100L148 44L176 72L204 44" fill="none" stroke="#C5C7C5" stroke-width="16" stroke-linejoin="bevel"/></g><text x="1564" y="994" fill="#C5C7C5" font-family="DejaVu Sans,sans-serif" font-size="48">umbra</text><text x="1472" y="1064" fill="#858A89" font-family="DejaVu Sans,sans-serif" font-size="13">INVERSÃO / preto sobre Bone</text><rect x="1472" y="1084" width="560" height="126" rx="4" fill="#C5C7C5"/><g transform="translate(1700 1103) scale(0.43859649122807015)"><path d="M24 20V72Q24 108 60 108H100L148 44L176 72L204 44" fill="none" stroke="#050505" stroke-width="16" stroke-linejoin="bevel"/></g><text x="1472" y="1258" fill="#858A89" font-family="DejaVu Sans,sans-serif" font-size="13">DESFOQUE / estrutura geral</text><g filter="url(#blur)"><g transform="translate(1472 1284) scale(0.5701754385964912)"><path d="M24 20V72Q24 108 60 108H100L148 44L176 72L204 44" fill="none" stroke="#C5C7C5" stroke-width="16" stroke-linejoin="bevel"/></g></g><text x="1472" y="1436" fill="#858A89" font-family="DejaVu Sans,sans-serif" font-size="15">Mais horizontal; o M também pode parecer um zigue-zague.</text><text x="64" y="1490" fill="#858A89" font-family="DejaVu Sans,sans-serif" font-size="14">Proposta exploratória · identidade vigente preservada · reconhecimento por pessoas ainda não medido</text></svg>